<?xml version="1.0" standalone="no"?>
<!DOCTYPE svg PUBLIC "-//W3C//DTD SVG 20010904//EN"
 "http://www.w3.org/TR/2001/REC-SVG-20010904/DTD/svg10.dtd">
<svg version="1.0" xmlns="http://www.w3.org/2000/svg"
 width="358.000000pt" height="209.000000pt" viewBox="0 0 358.000000 209.000000"
 preserveAspectRatio="xMidYMid meet">
<metadata>
Created by potrace 1.15, written by Peter Selinger 2001-2017
</metadata>
<g transform="translate(0.000000,209.000000) scale(0.100000,-0.100000)"
fill="#0D8EE3" stroke="none">
<path d="M687 2059 c-115 -45 -157 -91 -270 -289 -51 -91 -161 -268 -244 -395
-83 -126 -156 -248 -163 -269 -19 -58 -7 -185 24 -250 14 -29 80 -114 154
-198 71 -81 203 -242 291 -357 89 -116 176 -222 194 -235 51 -39 132 -61 222
-61 l80 0 265 127 c146 70 365 168 488 217 122 50 235 97 250 105 69 36 151
167 160 256 2 27 -3 93 -13 146 l-17 96 -46 -6 c-24 -3 -67 -6 -93 -6 l-49 0
0 -95 0 -95 -73 0 -73 0 -18 -67 c-38 -147 -49 -176 -78 -209 -17 -19 -48 -44
-69 -55 -36 -18 -63 -19 -509 -19 -511 0 -513 0 -571 56 -40 38 -50 69 -160
464 -113 407 -115 429 -62 504 20 27 123 105 338 253 171 118 328 223 350 234
49 23 142 25 192 4 36 -15 618 -410 661 -449 25 -22 161 -51 174 -38 13 13
-22 263 -43 307 -27 58 -104 142 -152 167 -30 15 -123 33 -317 63 -151 24
-359 61 -463 84 -103 23 -209 41 -235 41 -28 -1 -78 -13 -125 -31z"/>
<path d="M1043 1470 c-96 -20 -189 -94 -233 -185 -36 -74 -40 -199 -9 -280 30
-81 113 -164 189 -191 72 -24 187 -25 257 -1 61 21 131 84 162 146 22 42 54
151 47 159 -2 2 -47 6 -100 9 l-95 6 -7 -29 c-19 -79 -69 -124 -139 -124 -82
0 -138 63 -138 156 0 60 24 107 69 135 64 39 158 13 190 -53 l15 -33 92 7 c51
3 97 7 104 7 9 1 9 10 -1 39 -39 110 -108 187 -194 217 -58 20 -154 27 -209
15z"/>
<path d="M1870 1371 c-49 -15 -89 -41 -115 -75 -35 -45 -45 -118 -45 -323 l0
-163 85 0 85 0 0 193 c0 198 3 217 41 217 42 0 49 -62 8 -75 -16 -6 -19 -16
-19 -77 l0 -71 49 6 c102 12 152 62 159 158 6 75 -11 120 -58 163 -54 49 -125
66 -190 47z"/>
<path d="M2172 1153 c3 -192 5 -212 26 -255 33 -68 77 -92 167 -92 87 -1 136
21 173 77 27 40 27 41 30 259 l3 218 -80 0 -81 0 -2 -191 c-3 -164 -5 -193
-19 -202 -9 -6 -24 -7 -33 -4 -14 6 -16 30 -16 202 l0 195 -86 0 -86 0 4 -207z"/>
<path d="M2680 1085 l0 -275 80 0 80 0 0 201 0 200 36 -3 c65 -5 73 -69 10
-76 -25 -3 -26 -6 -26 -67 0 -53 7 -80 42 -159 l41 -96 84 0 c46 0 83 4 83 8
0 4 -20 55 -44 112 l-45 105 23 25 c37 39 46 65 46 123 0 40 -6 63 -22 87 -51
74 -97 89 -270 90 l-118 0 0 -275z"/>
<path d="M3257 1346 c-90 -33 -102 -62 -102 -261 0 -143 2 -164 20 -195 34
-57 73 -73 191 -78 l104 -5 0 82 0 81 -74 0 c-78 0 -92 7 -81 40 6 17 15 20
76 20 l69 0 0 60 0 60 -64 0 c-67 0 -86 10 -66 35 9 10 33 15 76 15 l64 0 0
80 0 80 -87 0 c-49 -1 -105 -7 -126 -14z"/>
<path d="M1490 1055 l0 -55 90 0 90 0 0 55 0 55 -90 0 -90 0 0 -55z"/>
</g>
</svg>
