<?xml version="1.0" standalone="no"?>
<!DOCTYPE svg PUBLIC "-//W3C//DTD SVG 20010904//EN"
 "http://www.w3.org/TR/2001/REC-SVG-20010904/DTD/svg10.dtd">
<svg version="1.0" xmlns="http://www.w3.org/2000/svg"
 width="1478.000000pt" height="632.000000pt" viewBox="0 0 1478.000000 632.000000"
 preserveAspectRatio="xMidYMid meet">
<metadata>
Created by potrace 1.15, written by Peter Selinger 2001-2017
</metadata>
<g transform="translate(0.000000,632.000000) scale(0.100000,-0.100000)"
fill="#0D8EE3" stroke="none">
<path d="M2370 6314 c-117 -23 -202 -53 -395 -141 -158 -73 -237 -127 -327
-221 -66 -71 -101 -128 -358 -578 -257 -451 -328 -565 -733 -1181 -246 -375
-463 -715 -481 -755 -51 -111 -69 -196 -70 -328 -1 -179 46 -405 113 -538 51
-102 68 -122 476 -586 306 -349 409 -476 828 -1020 264 -341 502 -645 530
-674 104 -107 222 -177 364 -216 244 -66 273 -71 403 -70 93 1 146 7 205 23
56 15 290 123 795 367 705 342 725 351 1450 646 404 165 767 316 805 336 81
42 247 199 287 272 14 25 51 91 83 148 74 131 114 247 122 351 l6 81 -550 0
-550 0 -78 -282 c-42 -155 -86 -306 -96 -336 -63 -182 -231 -336 -434 -399
-57 -17 -128 -18 -1445 -18 -1317 0 -1388 1 -1445 18 -211 65 -375 220 -439
415 -14 42 -159 559 -322 1147 -326 1177 -322 1161 -290 1315 9 41 34 113 57
159 74 149 82 156 1107 861 508 349 955 651 993 671 103 55 175 69 340 69 160
0 228 -13 329 -64 51 -25 1769 -1199 1907 -1302 29 -22 41 -24 142 -24 l111 0
0 -140 c0 -127 2 -140 18 -140 23 0 311 56 316 61 4 5 -79 720 -94 808 -16 92
-63 209 -118 290 -189 280 -308 383 -532 462 -31 11 -405 73 -866 144 -792
122 -824 128 -1355 246 -498 110 -554 121 -664 124 -66 2 -131 1 -145 -1z"/>
<path d="M14223 4320 c-80 -46 -107 -94 -111 -194 -3 -75 -1 -85 28 -133 22
-38 45 -61 83 -83 48 -29 58 -31 133 -28 100 4 148 31 194 111 29 48 31 58 28
133 -3 68 -7 87 -31 122 -15 23 -46 54 -69 69 -35 24 -54 28 -122 31 -75 3
-85 1 -133 -28z m166 -30 c87 -25 145 -131 120 -222 -24 -91 -117 -150 -199
-128 -135 36 -179 195 -83 301 47 52 98 68 162 49z"/>
<path d="M14263 4233 c-10 -3 -13 -38 -13 -124 l0 -119 30 0 c29 0 30 2 30 45
0 41 2 45 24 45 29 0 41 -15 51 -57 6 -30 10 -33 41 -33 32 0 34 2 28 28 -4
15 -13 42 -20 61 -12 30 -12 36 1 51 24 26 19 66 -11 89 -21 16 -40 21 -88 20
-33 0 -67 -3 -73 -6z"/>
<path d="M3177 4235 c-209 -40 -379 -133 -524 -288 -79 -85 -116 -139 -164
-241 -64 -137 -83 -234 -83 -416 1 -133 5 -168 26 -251 75 -281 282 -516 549
-622 125 -50 191 -61 369 -61 138 0 180 4 255 22 330 82 559 326 654 697 11
44 23 106 27 136 l6 56 -182 6 c-101 4 -227 7 -280 7 l-96 0 -11 -57 c-29
-153 -101 -256 -215 -309 -56 -26 -74 -29 -163 -29 -89 0 -107 3 -162 29 -161
74 -255 263 -224 451 38 227 205 368 418 352 141 -11 242 -84 308 -222 35 -71
37 -73 68 -69 18 2 145 11 282 20 138 9 252 17 254 20 9 9 -65 217 -106 297
-120 233 -318 392 -568 458 -107 27 -328 35 -438 14z"/>
<path d="M5110 3305 l0 -905 250 0 249 0 3 394 3 394 24 26 c26 27 67 34 101
16 36 -19 40 -61 40 -451 l0 -379 245 0 c189 0 245 3 245 13 0 6 0 221 0 476
0 503 -4 539 -56 643 -39 77 -114 151 -187 184 -54 25 -74 28 -158 29 -94 0
-99 -1 -178 -41 l-81 -42 0 274 0 274 -250 0 -250 0 0 -905z"/>
<path d="M7058 3740 c-192 -33 -386 -170 -481 -342 -61 -110 -82 -195 -81
-338 0 -143 16 -214 69 -321 149 -294 506 -439 830 -335 79 25 229 110 223
127 -4 11 -259 318 -269 325 -5 3 -27 -9 -50 -25 -69 -50 -148 -51 -211 -2
-90 71 -121 288 -58 410 26 52 92 109 135 117 96 18 171 -29 200 -123 l6 -23
-129 0 -130 0 -12 -64 c-11 -58 -9 -93 6 -148 5 -17 32 -18 379 -18 l373 0 6
53 c15 121 -30 298 -105 413 -147 226 -422 341 -701 294z"/>
<path d="M8455 3736 c-76 -20 -103 -33 -172 -82 -66 -47 -125 -117 -163 -194
-52 -102 -53 -115 -57 -602 l-4 -458 250 0 251 0 0 385 c0 314 3 392 14 420
28 67 105 73 132 10 11 -28 14 -108 14 -425 l0 -390 250 0 249 0 3 404 3 404
24 26 c43 46 103 30 121 -32 6 -22 10 -186 10 -419 l0 -383 245 0 245 0 0 443
c0 487 -4 530 -60 644 -96 194 -354 308 -561 247 -75 -23 -136 -55 -213 -114
l-67 -51 -51 45 c-132 116 -307 161 -463 122z"/>
<path d="M10651 3740 c-148 -31 -275 -103 -378 -213 -288 -309 -224 -807 133
-1046 102 -68 208 -101 344 -108 133 -6 225 12 340 68 120 59 241 180 299 300
42 88 71 188 71 252 l0 37 -37 -5 c-21 -2 -131 -7 -244 -11 l-206 -6 -21 -43
c-75 -155 -298 -129 -347 40 -58 199 167 337 320 196 l30 -27 245 9 c135 5
247 11 249 13 2 2 -4 32 -13 66 -57 204 -235 388 -439 454 -91 29 -264 41
-346 24z"/>
<path d="M12195 3743 c-190 -26 -373 -142 -481 -304 -57 -87 -91 -182 -105
-295 -58 -473 365 -856 838 -758 143 29 257 96 367 215 263 285 229 744 -75
996 -72 58 -197 120 -284 138 -65 14 -191 17 -260 8z m181 -502 c65 -30 114
-109 114 -186 0 -49 -47 -133 -91 -162 -125 -83 -289 11 -289 166 0 63 13 97
53 140 59 62 135 77 213 42z"/>
<path d="M13680 3743 c-196 -33 -386 -196 -449 -386 -35 -105 -41 -188 -41
-579 l0 -378 250 0 250 0 0 393 c0 419 1 428 51 456 36 20 94 7 117 -27 15
-23 17 -66 20 -424 l3 -398 245 0 245 0 -3 433 c-5 475 -6 484 -70 617 -42 87
-150 196 -238 238 -104 51 -265 74 -380 55z"/>
<path d="M4370 3205 l0 -175 300 0 300 0 0 175 0 175 -300 0 -300 0 0 -175z"/>
</g>
</svg>
