<?xml version="1.0" standalone="no"?>
<!DOCTYPE svg PUBLIC "-//W3C//DTD SVG 20010904//EN"
 "http://www.w3.org/TR/2001/REC-SVG-20010904/DTD/svg10.dtd">
<svg version="1.0" xmlns="http://www.w3.org/2000/svg"
 width="400.000000pt" height="200.000000pt" viewBox="0 0 400.000000 200.000000"
 preserveAspectRatio="xMidYMid meet">
<metadata>
Created by potrace 1.15, written by Peter Selinger 2001-2017
</metadata>
<g transform="translate(0.000000,200.000000) scale(0.100000,-0.100000)"
fill="#0D8EE3" stroke="none">
<path d="M3788 1764 c-68 -36 -80 -134 -24 -190 29 -29 41 -34 81 -34 40 0 52
5 80 33 42 42 52 77 33 125 -26 69 -107 101 -170 66z m125 -22 c79 -70 33
-192 -74 -192 -47 0 -99 56 -99 107 0 21 7 49 16 62 35 50 114 62 157 23z"/>
<path d="M1050 1260 l0 -370 95 0 95 0 0 46 0 46 46 -41 c55 -48 91 -58 136
-37 70 34 111 135 112 281 1 129 -15 185 -69 242 -37 38 -47 43 -86 43 -24 0
-64 -9 -88 -20 -24 -11 -45 -20 -47 -20 -2 0 -4 45 -4 100 l0 100 -95 0 -95 0
0 -370z m294 131 c14 -16 16 -42 14 -207 l-3 -189 -33 -3 c-19 -2 -44 4 -58
13 -24 15 -24 16 -24 198 0 129 4 187 12 195 18 18 73 14 92 -7z"/>
<path d="M2140 1550 l0 -80 -30 0 c-23 0 -30 -4 -30 -20 0 -16 7 -20 31 -20
l30 0 -3 -217 c-3 -197 -1 -222 16 -256 53 -106 220 -81 272 40 19 43 18 53
-6 53 -11 0 -20 -7 -20 -15 0 -8 -13 -29 -29 -47 -51 -57 -54 -39 -46 216 l7
226 34 0 c27 0 34 4 34 20 0 16 -7 20 -36 20 l-35 0 2 78 2 77 -96 3 -97 3 0
-81z"/>
<path d="M2480 1550 l0 -80 -30 0 c-23 0 -30 -4 -30 -20 0 -16 7 -20 30 -20
l30 0 -3 -212 c-2 -241 4 -277 57 -309 77 -47 179 -9 227 83 24 47 24 58 -1
58 -11 0 -20 -6 -20 -13 0 -22 -55 -81 -68 -73 -14 8 -15 90 -5 314 l6 152 34
0 c26 0 33 4 33 20 0 16 -7 20 -35 20 l-35 0 0 80 0 80 -95 0 -95 0 0 -80z"/>
<path d="M254 1490 c-115 -26 -185 -140 -186 -300 0 -135 50 -238 136 -279
100 -49 208 -4 266 110 24 47 24 46 1 52 -13 3 -22 -3 -29 -18 -32 -70 -128
-139 -158 -114 -21 17 -21 507 1 515 25 10 83 -16 115 -52 20 -23 38 -34 51
-32 19 3 17 7 -16 46 -55 63 -115 87 -181 72z"/>
<path d="M718 1490 c-137 -26 -221 -235 -168 -422 16 -56 71 -130 115 -155
101 -57 210 -11 267 112 20 43 23 66 23 165 0 98 -4 122 -23 165 -48 104 -124
152 -214 135z m85 -44 c79 -33 122 -135 115 -270 -8 -133 -60 -224 -138 -241
-18 -4 -34 -4 -38 0 -8 7 -3 505 5 518 6 10 19 9 56 -7z"/>
<path d="M1804 1490 c-112 -25 -185 -144 -186 -301 -1 -132 50 -237 134 -278
52 -25 95 -27 146 -6 46 20 108 78 133 126 18 36 18 37 -1 42 -14 4 -25 -4
-40 -28 -27 -44 -93 -103 -124 -111 -13 -3 -35 -4 -47 -2 -24 3 -24 5 -27 126
l-3 122 132 0 131 0 -7 56 c-22 176 -122 281 -241 254z m74 -42 c8 -8 12 -50
12 -125 l0 -113 -50 0 -50 0 0 113 c0 122 6 137 50 137 14 0 31 -5 38 -12z"/>
<path d="M3005 1490 c-65 -14 -121 -68 -158 -149 -32 -70 -31 -236 2 -308 79
-176 258 -190 369 -28 37 54 39 62 15 67 -12 3 -29 -12 -51 -44 -44 -65 -99
-100 -148 -96 l-39 3 0 120 0 120 129 3 129 3 -6 57 c-19 173 -121 280 -242
252z m83 -157 l3 -123 -51 0 -50 0 0 99 c0 55 4 112 10 126 9 23 15 26 47 23
l38 -3 3 -122z"/>
<path d="M3562 1435 l-49 -56 5 51 5 50 -99 0 -99 0 0 -295 0 -295 96 0 96 0
-5 218 -4 217 31 42 c45 63 74 78 111 63 17 -7 33 -10 36 -7 10 10 -39 66 -58
66 -9 1 -39 -24 -66 -54z"/>
<path d="M915 820 c-580 -4 -276 -5 960 -6 996 0 1797 1 1780 2 -60 6 -1909 9
-2740 4z"/>
<path d="M592 773 c-420 -3 -533 -6 -529 -16 9 -27 3617 -29 3617 -2 0 13
-1220 27 -2065 23 -269 -2 -730 -4 -1023 -5z"/>
<path d="M840 701 l-785 -6 1075 -7 c591 -4 1408 -3 1815 1 l740 7 -665 2
c-366 1 -829 4 -1030 5 -201 2 -718 1 -1150 -2z"/>
<path d="M1879 533 c-13 -15 -12 -15 7 -3 28 17 54 6 54 -23 0 -20 -4 -23 -25
-19 -35 6 -55 -14 -55 -58 0 -50 15 -61 78 -53 l52 6 0 71 c0 43 -5 77 -12 84
-18 18 -83 15 -99 -5z"/>
<path d="M2700 465 c0 -78 2 -85 20 -85 18 0 20 7 20 69 0 54 4 70 16 75 31
12 34 5 34 -69 0 -73 1 -75 25 -75 24 0 25 2 25 73 0 43 -5 78 -12 85 -16 16
-50 15 -67 0 -11 -10 -14 -10 -18 0 -3 6 -13 12 -24 12 -17 0 -19 -8 -19 -85z"/>
</g>
</svg>
