<?xml version="1.0" standalone="no"?>
<!DOCTYPE svg PUBLIC "-//W3C//DTD SVG 20010904//EN"
 "http://www.w3.org/TR/2001/REC-SVG-20010904/DTD/svg10.dtd">
<svg version="1.0" xmlns="http://www.w3.org/2000/svg"
 width="270.000000pt" height="119.000000pt" viewBox="0 0 270.000000 119.000000"
 preserveAspectRatio="xMidYMid meet">
<metadata>
Created by potrace 1.15, written by Peter Selinger 2001-2017
</metadata>
<g transform="translate(0.000000,119.000000) scale(0.100000,-0.100000)"
fill="#0D8EE3" stroke="none">
<path d="M1495 1045 c-33 -7 -78 -20 -99 -27 -36 -13 -41 -13 -58 4 -45 45
-138 6 -138 -58 0 -19 -4 -34 -8 -34 -36 0 -352 -243 -352 -271 0 -28 50 -1
120 64 43 39 117 96 165 126 80 50 87 53 104 37 22 -20 80 -21 109 0 13 9 24
30 28 54 l6 38 82 23 c115 32 243 33 308 1 90 -45 130 -123 110 -217 -6 -27
-14 -60 -18 -72 -5 -19 -2 -23 15 -23 26 0 47 42 57 118 14 112 -44 206 -147
236 -64 19 -201 20 -284 1z"/>
<path d="M360 688 c0 -19 -43 -191 -65 -265 -7 -22 -5 -23 64 -23 68 0 71 1
71 24 0 13 3 38 6 55 l7 31 76 0 c94 0 115 13 136 82 33 111 24 118 -156 118
-137 0 -139 0 -139 -22z"/>
<path d="M2276 698 c-3 -7 -19 -74 -37 -148 -18 -74 -34 -130 -36 -124 -2 7
-32 9 -83 6 -62 -4 -81 -1 -85 9 -2 8 3 46 13 84 l18 70 85 0 c76 0 98 6 99
28 0 4 -45 7 -100 7 -84 0 -103 -3 -119 -19 -18 -18 -18 -18 -30 0 -10 16 -25
19 -111 19 -122 0 -128 -5 -153 -111 -17 -72 -20 -77 -49 -83 -43 -8 -76 -8
-82 2 -3 5 -1 24 4 43 5 19 14 53 20 77 l11 42 54 0 c42 0 55 3 55 15 0 11
-12 15 -51 15 -50 0 -51 1 -45 25 5 18 2 25 -8 25 -28 0 -46 -12 -46 -31 0
-12 -7 -19 -20 -19 -11 0 -20 -7 -20 -15 0 -8 6 -15 14 -15 11 0 9 -17 -8 -86
-20 -85 -20 -86 -1 -100 11 -9 44 -14 82 -14 52 0 63 3 63 17 0 15 1 15 18 0
27 -24 227 -25 236 -1 3 9 6 17 6 18 0 2 -42 1 -94 -2 -101 -5 -111 -1 -100
43 6 25 7 25 109 25 l103 0 -5 -41 c-4 -29 -2 -44 8 -50 8 -5 71 -9 140 -8
l126 1 18 81 c27 120 24 117 105 117 49 0 70 -4 70 -12 0 -7 -11 -52 -23 -100
l-24 -88 26 0 c25 0 28 6 50 89 12 49 21 99 19 112 -3 23 -7 24 -95 27 l-91 3
9 32 c5 17 9 35 9 39 0 13 -50 9 -54 -4z"/>
<path d="M667 593 c-3 -21 -12 -64 -19 -97 -12 -56 -12 -59 10 -77 21 -16 44
-18 222 -19 166 0 198 2 194 14 -7 19 22 127 38 138 7 4 31 7 54 5 l41 -2 -13
-50 c-17 -64 -17 -70 2 -89 12 -13 40 -16 138 -16 122 0 123 0 134 25 7 14 12
28 12 30 0 3 -38 5 -85 5 -69 0 -85 3 -85 15 0 12 17 15 89 15 50 0 93 4 96
10 3 5 9 33 12 61 4 38 2 53 -8 60 -8 5 -67 9 -131 9 -115 0 -117 0 -138 -27
l-22 -28 7 28 c7 27 7 27 -42 27 -27 0 -55 -6 -62 -12 -11 -10 -13 -10 -7 0 5
9 -8 12 -53 12 -56 0 -61 -2 -61 -22 0 -30 -43 -185 -47 -171 -2 6 5 47 17 91
11 44 20 85 20 91 0 7 -23 11 -58 11 l-58 0 -20 -82 c-19 -81 -20 -83 -52 -86
-17 -2 -32 -2 -32 0 0 2 9 37 20 78 11 41 20 78 20 83 0 4 -29 7 -64 7 l-63 0
-6 -37z"/>
<path d="M648 328 c-3 -96 7 -142 42 -182 106 -120 377 -107 655 31 107 54
244 146 222 151 -10 2 -52 -19 -95 -46 -178 -114 -334 -172 -484 -180 -125 -6
-177 8 -234 62 -48 47 -69 106 -59 167 6 37 5 39 -19 39 -24 0 -26 -4 -28 -42z"/>
</g>
</svg>
